<svg width="39" height="23" viewBox="0 0 39 23" fill="none" xmlns="http://www.w3.org/2000/svg">
<path d="M1 22.5H38" stroke="white"/>
<path d="M1 22C2.88776 -2.24175 34.602 -1.75703 38 22" stroke="white"/>
<path d="M19.5 2C19.5 2.45456 19.3612 2.84684 19.1607 3.11421C18.9602 3.38143 18.7215 3.5 18.5 3.5C18.2785 3.5 18.0398 3.38143 17.8393 3.11421C17.6388 2.84684 17.5 2.45456 17.5 2C17.5 1.54544 17.6388 1.15316 17.8393 0.885786C18.0398 0.61857 18.2785 0.5 18.5 0.5C18.7215 0.5 18.9602 0.61857 19.1607 0.885786C19.3612 1.15316 19.5 1.54544 19.5 2Z" stroke="white"/>
</svg>
